HIERARCHY
ROOT Model
{
	OFFSET 0 0 0
	CHANNELS 6 Xposition Yposition Zposition Zrotation Xrotation Yrotation
	JOINT Model1
	{
		OFFSET 0 -2.25479 2.99384
		CHANNELS 3 Zrotation Xrotation Yrotation
		JOINT Model2
		{
			OFFSET 12.111 0 0
			CHANNELS 3 Zrotation Xrotation Yrotation
			JOINT Model3
			{
				OFFSET 11.5502 0 0
				CHANNELS 3 Zrotation Xrotation Yrotation
				JOINT Model4
				{
					OFFSET 11.781 0 0
					CHANNELS 3 Zrotation Xrotation Yrotation
					JOINT Model5
					{
						OFFSET 20.0601 0 0
						CHANNELS 3 Zrotation Xrotation Yrotation
						JOINT Model6
						{
							OFFSET 11.1962 0 0
							CHANNELS 3 Zrotation Xrotation Yrotation
							End Site
							{
								OFFSET 0 0 0
							}
						}
					}
					JOINT Model7
					{
						OFFSET 10.8223 0.417534 3.51114
						CHANNELS 3 Zrotation Xrotation Yrotation
						JOINT Model8
						{
							OFFSET -6.07944 0 0
							CHANNELS 3 Zrotation Xrotation Yrotation
							JOINT Model9
							{
								OFFSET -0.277405 10.39 -0.051239
								CHANNELS 3 Zrotation Xrotation Yrotation
								JOINT Model10
								{
									OFFSET -3.43909 -0.282043 1.86679
									CHANNELS 3 Zrotation Xrotation Yrotation
									JOINT Model11
									{
										OFFSET 13.0269 0 0
										CHANNELS 3 Zrotation Xrotation Yrotation
										JOINT Model12
										{
											OFFSET 10.8866 0 0
											CHANNELS 3 Zrotation Xrotation Yrotation
											JOINT Model13
											{
												OFFSET 16.7317 0 0
												CHANNELS 3 Zrotation Xrotation Yrotation
												JOINT Model14
												{
													OFFSET 11.8292 0 0
													CHANNELS 3 Zrotation Xrotation Yrotation
													JOINT Model15
													{
														OFFSET 4.82751 -3.73566 -0.836517
														CHANNELS 3 Zrotation Xrotation Yrotation
														JOINT Model16
														{
															OFFSET 3.75311 -0.0582886 -0.0186462
															CHANNELS 3 Zrotation Xrotation Yrotation
															JOINT Model17
															{
																OFFSET 2.88689 0.0192337 0.014801
																CHANNELS 3 Zrotation Xrotation Yrotation
																End Site
																{
																	OFFSET 0 0 0
																}
															}
														}
													}
													JOINT Model18
													{
														OFFSET 9.72197 -3.06458 0.23877
														CHANNELS 3 Zrotation Xrotation Yrotation
														JOINT Model19
														{
															OFFSET 4.61131 0 0
															CHANNELS 3 Zrotation Xrotation Yrotation
															JOINT Model20
															{
																OFFSET 2.8969 -7.62939e-006 0
																CHANNELS 3 Zrotation Xrotation Yrotation
																End Site
																{
																	OFFSET 0 0 0
																}
															}
														}
													}
													JOINT Model21
													{
														OFFSET 9.54431 -0.745064 0.588928
														CHANNELS 3 Zrotation Xrotation Yrotation
														JOINT Model22
														{
															OFFSET 5.33978 0 0
															CHANNELS 3 Zrotation Xrotation Yrotation
															JOINT Model23
															{
																OFFSET 3.03619 7.62939e-006 0
																CHANNELS 3 Zrotation Xrotation Yrotation
																End Site
																{
																	OFFSET 0 0 0
																}
															}
														}
													}
													JOINT Model24
													{
														OFFSET 9.47758 1.51286 0.485107
														CHANNELS 3 Zrotation Xrotation Yrotation
														JOINT Model25
														{
															OFFSET 4.96136 7.62939e-006 0
															CHANNELS 3 Zrotation Xrotation Yrotation
															JOINT Model26
															{
																OFFSET 2.51965 0 0
																CHANNELS 3 Zrotation Xrotation Yrotation
																End Site
																{
																	OFFSET 0 0 0
																}
															}
														}
													}
													JOINT Model27
													{
														OFFSET 9.34247 3.34117 -0.239288
														CHANNELS 3 Zrotation Xrotation Yrotation
														JOINT Model28
														{
															OFFSET 3.28259 2.28882e-005 0
															CHANNELS 3 Zrotation Xrotation Yrotation
															JOINT Model29
															{
																OFFSET 2.1292 0 0
																CHANNELS 3 Zrotation Xrotation Yrotation
																End Site
																{
																	OFFSET 0 0 0
																}
															}
														}
													}
												}
											}
										}
									}
								}
							}
						}
					}
					JOINT Model30
					{
						OFFSET 10.8223 0.4179 -3.51108
						CHANNELS 3 Zrotation Xrotation Yrotation
						JOINT Model31
						{
							OFFSET 6.07944 0 0
							CHANNELS 3 Zrotation Xrotation Yrotation
							JOINT Model32
							{
								OFFSET 0.277405 -10.39 0.051239
								CHANNELS 3 Zrotation Xrotation Yrotation
								JOINT Model33
								{
									OFFSET 3.43909 0.282043 -1.86679
									CHANNELS 3 Zrotation Xrotation Yrotation
									JOINT Model34
									{
										OFFSET -13.0269 0 0
										CHANNELS 3 Zrotation Xrotation Yrotation
										JOINT Model35
										{
											OFFSET -10.8866 0 0
											CHANNELS 3 Zrotation Xrotation Yrotation
											JOINT Model36
											{
												OFFSET -16.7317 0 0
												CHANNELS 3 Zrotation Xrotation Yrotation
												JOINT Model37
												{
													OFFSET -11.8292 0 0
													CHANNELS 3 Zrotation Xrotation Yrotation
													JOINT Model38
													{
														OFFSET -4.82751 3.73566 0.836517
														CHANNELS 3 Zrotation Xrotation Yrotation
														JOINT Model39
														{
															OFFSET -3.75311 0.0582886 0.0186462
															CHANNELS 3 Zrotation Xrotation Yrotation
															JOINT Model40
															{
																OFFSET -2.88687 -0.0192337 -0.014801
																CHANNELS 3 Zrotation Xrotation Yrotation
																End Site
																{
																	OFFSET 0 0 0
																}
															}
														}
													}
													JOINT Model41
													{
														OFFSET -9.72198 3.06459 -0.23877
														CHANNELS 3 Zrotation Xrotation Yrotation
														JOINT Model42
														{
															OFFSET -4.6113 0 0
															CHANNELS 3 Zrotation Xrotation Yrotation
															JOINT Model43
															{
																OFFSET -2.89691 0 0
																CHANNELS 3 Zrotation Xrotation Yrotation
																End Site
																{
																	OFFSET 0 0 0
																}
															}
														}
													}
													JOINT Model44
													{
														OFFSET -9.54431 0.745064 -0.588928
														CHANNELS 3 Zrotation Xrotation Yrotation
														JOINT Model45
														{
															OFFSET -5.33978 0 0
															CHANNELS 3 Zrotation Xrotation Yrotation
															JOINT Model46
															{
																OFFSET -3.03619 -1.52588e-005 0
																CHANNELS 3 Zrotation Xrotation Yrotation
																End Site
																{
																	OFFSET 0 0 0
																}
															}
														}
													}
													JOINT Model47
													{
														OFFSET -9.4776 -1.51286 -0.485107
														CHANNELS 3 Zrotation Xrotation Yrotation
														JOINT Model48
														{
															OFFSET -4.96136 -1.52588e-005 0
															CHANNELS 3 Zrotation Xrotation Yrotation
															JOINT Model49
															{
																OFFSET -2.51965 0 0
																CHANNELS 3 Zrotation Xrotation Yrotation
																End Site
																{
																	OFFSET 0 0 0
																}
															}
														}
													}
													JOINT Model50
													{
														OFFSET -9.34247 -3.34118 0.239288
														CHANNELS 3 Zrotation Xrotation Yrotation
														JOINT Model51
														{
															OFFSET -3.28259 -2.28882e-005 0
															CHANNELS 3 Zrotation Xrotation Yrotation
															JOINT Model52
															{
																OFFSET -2.12921 0 0
																CHANNELS 3 Zrotation Xrotation Yrotation
																End Site
																{
																	OFFSET 0 0 0
																}
															}
														}
													}
												}
											}
										}
									}
								}
							}
						}
					}
				}
			}
		}
	}
	JOINT Model53
	{
		OFFSET 4.38025 -2.14632 -1.11517
		CHANNELS 3 Zrotation Xrotation Yrotation
		JOINT Model54
		{
			OFFSET 0 0 4.94998
			CHANNELS 3 Zrotation Xrotation Yrotation
			JOINT Model55
			{
				OFFSET 18.5642 0 0
				CHANNELS 3 Zrotation Xrotation Yrotation
				JOINT Model56
				{
					OFFSET 21.2884 0 0
					CHANNELS 3 Zrotation Xrotation Yrotation
					JOINT Model57
					{
						OFFSET 30.261 0 0
						CHANNELS 3 Zrotation Xrotation Yrotation
						JOINT Model58
						{
							OFFSET 11.7259 0 0
							CHANNELS 3 Zrotation Xrotation Yrotation
							JOINT Model59
							{
								OFFSET 10.682 0 0
								CHANNELS 3 Zrotation Xrotation Yrotation
								End Site
								{
									OFFSET 0 0 0
								}
							}
						}
					}
				}
			}
		}
	}
	JOINT Model60
	{
		OFFSET -4.38025 -2.14632 -1.11517
		CHANNELS 3 Zrotation Xrotation Yrotation
		JOINT Model61
		{
			OFFSET 0 0 -4.94998
			CHANNELS 3 Zrotation Xrotation Yrotation
			JOINT Model62
			{
				OFFSET -18.5642 0 0
				CHANNELS 3 Zrotation Xrotation Yrotation
				JOINT Model63
				{
					OFFSET -21.2884 0 0
					CHANNELS 3 Zrotation Xrotation Yrotation
					JOINT Model64
					{
						OFFSET -30.261 0 0
						CHANNELS 3 Zrotation Xrotation Yrotation
						JOINT Model65
						{
							OFFSET -11.7259 0 0
							CHANNELS 3 Zrotation Xrotation Yrotation
							JOINT Model66
							{
								OFFSET -10.682 0 0
								CHANNELS 3 Zrotation Xrotation Yrotation
								End Site
								{
									OFFSET 0 0 0
								}
							}
						}
					}
				}
			}
		}
	}
}
MOTION
Frames: 4
Frame Time: 0.033333
-401.816 172.157 -450.118 65.2263 -54.4016 69.0242 -180 4.29621e-031 -90 1.81916 0.488385 0.127588 3.63742 0.980136 0.23962 3.63742 0.980572 0.239593 5.85327 -0.800499 7.73729 5.46762 0.702605 -8.42577 120.092 75.5343 58.4939 19.4294 30.4285 1.19762 -167.277 84.4999 48.8109 101.099 -29.4247 -2.76289 2.90399e-005 -30.6776 3.48842e-005 -40.9753 -19.6499 0.425288 1.01028e-008 -30.0826 -1.17155e-007 24.6607 3.27701 14.9109 -72.0648 39.0385 39.3397 33.3638 2.10362 14.835 0.588947 0.308273 6.35287 -99.6409 81.413 100.35 -0.018141 2.78184e-005 -0.117315 -0.124139 0.00241117 -0.799296 -79.8382 79.5773 80.5374 -0.00022581 -0.000220883 2.20445e-005 -0.000956272 0.000122948 -2.75238e-005 -66.7416 80.4058 67.2171 -0.000437172 1.59848e-005 -2.74698e-005 -0.000136657 -0.000109238 -5.48434e-005 -6.42159 81.2158 8.01779 -0.000218624 1.69429e-005 0.000211983 0.000901505 -0.000184755 -0.000218779 -59.9282 75.5373 58.5147 31.0456 24.6812 -3.81582 -167.277 84.4999 48.8109 111.657 -4.88148 -23.524 8.18183e-006 -2.39361 2.91026e-005 -49.025 -15.8826 0.479027 -4.66921e-006 -24.4796 3.32477e-006 24.7057 -4.90825 -22.1458 -72.0648 39.0385 39.3397 33.3638 2.10361 14.835 0.588946 0.308273 6.35287 -99.6409 81.413 100.35 -0.0181409 3.00929e-005 -0.117315 -0.124139 0.00241116 -0.799296 -79.8382 79.5773 80.5374 -0.000260656 -0.000218548 2.37222e-005 -0.00095624 0.000123021 -2.71152e-005 -66.7416 80.4058 67.2171 -0.000437138 1.48968e-005 -2.7166e-005 -0.000136611 -0.000109262 -5.44319e-005 -6.42159 81.2158 8.01779 -0.000218559 1.9577e-005 0.000212449 0.000901592 -0.000191248 -0.00021836 0.000811311 0.56661 89.91 -19.0187 -3.17687 -0.8355 9.04785e-007 -4.19941 -1.43388e-008 58.1007 3.15456 -0.00706619 -8.72335e-008 4.62905 -1.0138e-007 -41.2701 1.38503 -1.07818 -64.3325 12.0971 3.22075 -180 -0.566579 -90.09 -48.0991 1.49539 0.713056 -8.09033e-007 2.23665 -2.70388e-008 44.6144 -5.2982 -0.314531 2.49285e-007 -8.03083 -3.21781e-007 -60.5582 -0.383275 -0.414532 -35.4947 4.22234e-007 6.80751e-007 
-398.047 171.618 -445.662 65.4932 -53.3455 69.7202 -180 4.29621e-031 -90 1.80326 0.447889 0.336374 3.60404 0.905696 0.658517 3.60404 0.906133 0.65849 6.48035 -0.692598 7.27253 4.40638 0.758418 -8.08819 120.092 75.5343 58.4939 19.4425 28.9924 0.999005 -167.277 84.4999 48.8109 99.8501 -29.3401 -2.56821 2.90302e-005 -30.6638 3.48792e-005 -40.3796 -19.0778 0.418675 1.21246e-008 -29.2196 -1.16154e-007 25.014 3.4129 15.2988 -72.0648 39.0385 39.3397 33.3638 2.10362 14.835 0.588947 0.308273 6.35287 -99.6409 81.413 100.35 -0.018141 2.78184e-005 -0.117315 -0.124139 0.00241117 -0.799296 -79.8382 79.5773 80.5374 -0.00022581 -0.000220883 2.20445e-005 -0.000956272 0.000122948 -2.75238e-005 -66.7416 80.4058 67.2171 -0.000437172 1.59848e-005 -2.74698e-005 -0.000136657 -0.000109238 -5.48434e-005 -6.42159 81.2158 8.01779 -0.000218624 1.69429e-005 0.000211983 0.000901505 -0.000184755 -0.000218779 -59.9282 75.5373 58.5147 30.8159 25.3713 -3.70604 -167.277 84.4999 48.8109 112.128 -4.94939 -24.3385 8.31707e-006 -2.65957 2.91085e-005 -49.5756 -16.5356 0.484637 -4.60612e-006 -25.4613 3.35141e-006 23.8521 -4.84867 -22.6701 -72.0648 39.0385 39.3397 33.3638 2.10361 14.835 0.588946 0.308273 6.35287 -99.6409 81.413 100.35 -0.0181409 3.00929e-005 -0.117315 -0.124139 0.00241116 -0.799296 -79.8382 79.5773 80.5374 -0.000260656 -0.000218548 2.37222e-005 -0.00095624 0.000123021 -2.71152e-005 -66.7416 80.4058 67.2171 -0.000437138 1.48968e-005 -2.7166e-005 -0.000136611 -0.000109262 -5.44319e-005 -6.42159 81.2158 8.01779 -0.000218559 1.9577e-005 0.000212449 0.000901592 -0.000191248 -0.00021836 0.000811311 0.56661 89.91 -27.2271 -3.53162 -2.74586 9.04842e-007 -3.96925 -1.43347e-008 67.2684 2.66935 -0.00766742 -8.85415e-008 3.8915 -1.01283e-007 -45.4905 2.3737 -2.00468 -56.2246 7.82451 0.752892 -180 -0.566579 -90.09 -46.7295 1.33938 0.0312892 -8.09091e-007 2.11294 -2.70366e-008 50.6163 -5.3931 -0.00631637 2.48424e-007 -8.18249 -3.21902e-007 -65.4568 -2.03025 0.321362 -37.7699 -0.211621 -0.154424 
-394.337 171.643 -441.467 64.9376 -52.1634 69.5324 -180 4.29621e-031 -90 1.82222 0.406652 0.371539 3.64191 0.824467 0.729987 3.64191 0.824904 0.729959 6.95627 -0.880623 7.97851 3.21932 0.734978 -8.01852 120.092 75.5343 58.4939 20.222 28.5979 0.632939 -167.277 84.4999 48.8109 99.5415 -28.9968 -2.88957 2.88253e-005 -30.3734 3.47751e-005 -40.0075 -19.0147 0.415313 1.23514e-008 -29.1219 -1.16044e-007 25.3665 3.48513 15.3973 -72.0648 39.0385 39.3397 33.3638 2.10362 14.835 0.588947 0.308273 6.35287 -99.6409 81.413 100.35 -0.018141 2.78184e-005 -0.117315 -0.124139 0.00241117 -0.799296 -79.8382 79.5773 80.5374 -0.00022581 -0.000220883 2.20445e-005 -0.000956272 0.000122948 -2.75238e-005 -66.7416 80.4058 67.2171 -0.000437172 1.59848e-005 -2.74698e-005 -0.000136657 -0.000109238 -5.48434e-005 -6.42159 81.2158 8.01779 -0.000218624 1.69429e-005 0.000211983 0.000901505 -0.000184755 -0.000218779 -59.9282 75.5373 58.5147 30.4254 26.2181 -3.52679 -167.277 84.4999 48.8109 113.433 -5.34601 -25.1474 8.48245e-006 -2.98466 2.91167e-005 -50.7044 -17.121 0.494213 -4.54854e-006 -26.3435 3.37656e-006 23.2977 -4.79562 -22.963 -72.0648 39.0385 39.3397 33.3638 2.10361 14.835 0.588946 0.308273 6.35287 -99.6409 81.413 100.35 -0.0181409 3.00929e-005 -0.117315 -0.124139 0.00241116 -0.799296 -79.8382 79.5773 80.5374 -0.000260656 -0.000218548 2.37222e-005 -0.00095624 0.000123021 -2.71152e-005 -66.7416 80.4058 67.2171 -0.000437138 1.48968e-005 -2.7166e-005 -0.000136611 -0.000109262 -5.44319e-005 -6.42159 81.2158 8.01779 -0.000218559 1.9577e-005 0.000212449 0.000901592 -0.000191248 -0.00021836 0.000811311 0.56661 89.91 -37.0416 -3.99569 -4.53534 9.04715e-007 -4.47639 -1.43441e-008 72.5957 2.29386 -0.00794079 -8.95462e-008 3.32407 -1.0122e-007 -50.6282 3.36855 -2.80714 -51.4425 4.23004 -0.294248 -180 -0.566579 -90.09 -43.9837 0.666325 -1.42837 -8.09418e-007 1.41965 -2.70265e-008 52.584 -4.89409 -0.00647613 2.52649e-007 -7.43683 -3.21328e-007 -68.5443 -3.43236 0.889672 -40.0539 -0.0114579 -0.325666 
-390.569 171.957 -437.329 63.9252 -51.2175 68.7312 -180 4.29621e-031 -90 1.85508 0.382707 0.218951 3.70882 0.771861 0.425412 3.70882 0.772298 0.425384 7.3124 -1.14872 8.97734 2.0864 0.65263 -7.51798 120.092 75.5343 58.4939 21.4791 28.4434 0.11098 -167.277 84.4999 48.8109 99.5923 -28.4176 -3.49068 2.84389e-005 -29.8211 3.45814e-005 -39.5076 -19.359 0.411872 1.1158e-008 -29.6341 -1.16629e-007 25.7704 3.53151 15.3502 -72.0648 39.0385 39.3397 33.3638 2.10362 14.835 0.588947 0.308273 6.35287 -99.6409 81.413 100.35 -0.018141 2.78184e-005 -0.117315 -0.124139 0.00241117 -0.799296 -79.8382 79.5773 80.5374 -0.00022581 -0.000220883 2.20445e-005 -0.000956272 0.000122948 -2.75238e-005 -66.7416 80.4058 67.2171 -0.000437172 1.59848e-005 -2.74698e-005 -0.000136657 -0.000109238 -5.48434e-005 -6.42159 81.2158 8.01779 -0.000218624 1.69429e-005 0.000211983 0.000901505 -0.000184755 -0.000218779 -59.9282 75.5373 58.5147 30.3476 27.5673 -3.44054 -167.277 84.4999 48.8109 115.72 -6.11599 -26.1264 8.70116e-006 -3.41428 2.91289e-005 -52.0013 -17.6261 0.504633 -4.49813e-006 -27.105 3.39923e-006 23.19 -4.77442 -22.9703 -72.0648 39.0385 39.3397 33.3638 2.10361 14.835 0.588946 0.308273 6.35287 -99.6409 81.413 100.35 -0.0181409 3.00929e-005 -0.117315 -0.124139 0.00241116 -0.799296 -79.8382 79.5773 80.5374 -0.000260656 -0.000218548 2.37222e-005 -0.00095624 0.000123021 -2.71152e-005 -66.7416 80.4058 67.2171 -0.000437138 1.48968e-005 -2.7166e-005 -0.000136611 -0.000109262 -5.44319e-005 -6.42159 81.2158 8.01779 -0.000218559 1.9577e-005 0.000212449 0.000901592 -0.000191248 -0.00021836 0.000811311 0.56661 89.91 -46.7481 -4.5011 -5.98113 9.04443e-007 -5.55806 -1.43679e-008 72.7954 2.58064 -0.00797271 -8.87849e-008 3.7541 -1.01267e-007 -55.1407 4.12618 -3.31641 -46.2001 3.50564 -0.385887 -180 -0.566579 -90.09 -40.5103 0.12796 -2.8548 -8.0959e-007 1.05518 -2.70228e-008 52.282 -4.45043 -0.00644237 2.5641e-007 -6.77091 -3.20863e-007 -70.7751 -5.20132 1.62772 -41.5253 0.756034 -0.410811 
